<svg width="32" height="32" viewBox="0 0 32 32" fill="none" xmlns="http://www.w3.org/2000/svg">
<path d="M21.3125 16.3125C22.0029 16.3125 22.5625 16.8721 22.5625 17.5625V21.3406C22.5625 21.7095 22.3994 22.0596 22.1169 22.2974L20.1143 23.9817C19.8799 24.1787 19.5942 24.2749 19.3103 24.2749C18.9541 24.2749 18.6003 24.1235 18.353 23.8296C17.9087 23.301 17.9768 22.5127 18.5051 22.0684L20.0625 20.7585V17.5625C20.0625 16.8721 20.6221 16.3125 21.3125 16.3125ZM30.75 11.375C30.0596 11.375 29.5 11.9346 29.5 12.625V14.5483C27.4966 12.1245 24.5007 10.6812 21.2844 10.6812C15.4067 10.6812 10.625 15.4629 10.625 21.3406C10.625 27.2183 15.4194 32 21.3125 32C22.9229 32 24.5146 31.6372 25.9561 30.9465C25.9805 30.9355 26.0049 30.9248 26.0288 30.9126C26.0354 30.9089 26.042 30.9043 26.0486 30.9006C26.2168 30.8179 26.3838 30.7319 26.5476 30.6401C27.1501 30.3032 27.3655 29.5415 27.0283 28.939C26.6914 28.3364 25.9299 28.1211 25.3274 28.458C24.1084 29.1396 22.7202 29.5 21.3125 29.5C16.7979 29.5 13.125 25.8396 13.125 21.3406C13.125 16.8416 16.7852 13.1812 21.2844 13.1812C23.8479 13.1812 26.2285 14.3792 27.7593 16.375H25.8125C25.1221 16.375 24.5625 16.9346 24.5625 17.625C24.5625 18.3154 25.1221 18.875 25.8125 18.875H28.25C30.3179 18.875 32 17.1929 32 15.125V12.625C32 11.9346 31.4404 11.375 30.75 11.375ZM29.8569 25.5576C29.2849 25.1711 28.5081 25.3218 28.1218 25.8943C27.7356 26.4668 27.8867 27.2437 28.4587 27.6299C28.6731 27.7744 28.9163 27.8438 29.157 27.8438C29.5588 27.8438 29.9524 27.6506 30.1943 27.2925C30.5798 26.7207 30.4294 25.9438 29.8569 25.5576ZM31.9568 21.6931C31.9487 21.6531 31.9387 21.6138 31.927 21.5745C31.915 21.5356 31.9014 21.4968 31.8857 21.4595C31.8701 21.4219 31.8525 21.3843 31.8333 21.3486C31.8137 21.3125 31.7932 21.2776 31.7708 21.2437C31.7483 21.2095 31.7231 21.1763 31.6975 21.145C31.6719 21.113 31.6438 21.0825 31.615 21.0537C31.5864 21.0249 31.5557 20.9968 31.5239 20.9712C31.4927 20.9451 31.4587 20.9207 31.425 20.8982C31.3914 20.8757 31.3557 20.8545 31.3201 20.8357C31.2837 20.8162 31.2468 20.7988 31.2095 20.7832C31.1719 20.7676 31.1331 20.7537 31.0945 20.7419C31.0549 20.73 31.0149 20.72 30.9756 20.7119C30.9355 20.7039 30.8943 20.6975 30.8538 20.6938C30.7725 20.6855 30.6899 20.6855 30.6082 20.6938C30.5676 20.6975 30.5269 20.7039 30.4868 20.7119C30.4468 20.72 30.407 20.73 30.3682 20.7419C30.3293 20.7537 30.2908 20.7676 30.2532 20.7832C30.2156 20.7988 30.1782 20.8162 30.1426 20.8357C30.1062 20.8545 30.0713 20.8757 30.0376 20.8982C30.0032 20.9207 29.97 20.9451 29.9387 20.9712C29.907 20.9968 29.8762 21.0249 29.8474 21.0537C29.8181 21.0825 29.7905 21.113 29.7644 21.145C29.7388 21.1763 29.7144 21.2095 29.6919 21.2437C29.6694 21.2776 29.6482 21.3125 29.6294 21.3486C29.6101 21.3843 29.5925 21.4219 29.5769 21.4595C29.5613 21.4968 29.5476 21.5356 29.5356 21.5745C29.5239 21.6138 29.5137 21.6531 29.5056 21.6931C29.4976 21.7332 29.4912 21.7744 29.4875 21.8145C29.4832 21.8557 29.4812 21.897 29.4812 21.9375C29.4812 21.978 29.4832 22.0193 29.4875 22.0605C29.4912 22.1006 29.4976 22.1418 29.5056 22.1819C29.5139 22.2212 29.5239 22.2612 29.5356 22.3005C29.5476 22.3394 29.5613 22.3782 29.5769 22.4155C29.5925 22.4531 29.6101 22.4907 29.6294 22.5264C29.6482 22.5618 29.6694 22.5974 29.6919 22.6313C29.7144 22.6655 29.7388 22.6987 29.7644 22.73C29.7905 22.762 29.8181 22.7925 29.8474 22.8213C29.8762 22.8501 29.907 22.8782 29.9387 22.9038C29.97 22.9294 30.0032 22.9543 30.0376 22.9768C30.0713 22.9993 30.1062 23.0205 30.1426 23.0393C30.1782 23.0588 30.2156 23.0762 30.2532 23.0918C30.2908 23.1074 30.3293 23.1213 30.3682 23.1331C30.407 23.145 30.447 23.155 30.4868 23.1631C30.5269 23.1711 30.5676 23.1775 30.6082 23.1812C30.6487 23.1855 30.6907 23.1875 30.7312 23.1875C30.772 23.1875 30.8132 23.1855 30.8538 23.1812C30.8943 23.1775 30.9358 23.1711 30.9756 23.1631C31.0151 23.155 31.0552 23.145 31.0945 23.1331C31.1331 23.1213 31.1719 23.1074 31.2095 23.0918C31.2468 23.0762 31.2837 23.0588 31.3201 23.0393C31.3557 23.0205 31.3914 22.9993 31.425 22.9768C31.4587 22.9543 31.4927 22.9294 31.5239 22.9038C31.5557 22.8782 31.5864 22.8501 31.615 22.8213C31.6438 22.7925 31.6719 22.762 31.6975 22.73C31.7231 22.6987 31.7483 22.6655 31.7708 22.6313C31.7932 22.5974 31.8137 22.5618 31.8333 22.5264C31.8525 22.4907 31.8701 22.4531 31.8857 22.4155C31.9014 22.3782 31.915 22.3394 31.927 22.3005C31.9387 22.2612 31.9487 22.2212 31.9568 22.1819C31.9651 22.1418 31.9712 22.1006 31.9751 22.0605C31.9795 22.0193 31.9812 21.978 31.9812 21.9375C31.9812 21.897 31.9795 21.8557 31.9751 21.8145C31.9712 21.7744 31.9648 21.7332 31.9568 21.6931ZM10.25 29.5H5C3.62158 29.5 2.5 28.3784 2.5 27V7.5C2.5 6.12158 3.62158 5 5 5H6.5625V6.25C6.5625 6.94043 7.12207 7.5 7.8125 7.5C8.50293 7.5 9.0625 6.94043 9.0625 6.25V5H14.6875V6.25C14.6875 6.94043 15.2471 7.5 15.9375 7.5C16.6279 7.5 17.1875 6.94043 17.1875 6.25V5H22.875V6.25C22.875 6.94043 23.4346 7.5 24.125 7.5C24.8154 7.5 25.375 6.94043 25.375 6.25V5H27C28.3784 5 29.5 6.12158 29.5 7.5C29.5 8.19043 30.0596 8.75 30.75 8.75C31.4404 8.75 32 8.19043 32 7.5C32 4.74292 29.7571 2.5 27 2.5H25.375V1.25C25.375 0.55957 24.8154 0 24.125 0C23.4346 0 22.875 0.55957 22.875 1.25V2.5H17.1875V1.25C17.1875 0.55957 16.6279 0 15.9375 0C15.2471 0 14.6875 0.55957 14.6875 1.25V2.5H9.0625V1.25C9.0625 0.55957 8.50293 0 7.8125 0C7.12207 0 6.5625 0.55957 6.5625 1.25V2.5H5C2.24292 2.5 0 4.74292 0 7.5V27C0 29.7571 2.24292 32 5 32H10.25C10.9404 32 11.5 31.4404 11.5 30.75C11.5 30.0596 10.9404 29.5 10.25 29.5Z" fill="#BDBDBD"/>
</svg>
