<svg width="32" height="32" viewBox="0 0 32 32" fill="none" xmlns="http://www.w3.org/2000/svg">
<path d="M29.1875 21.3224H29.058C30.1225 20.6603 30.8351 19.4621 30.8351 18.0968C30.8351 16.017 29.1814 14.3248 27.1489 14.3248C25.1163 14.3248 23.4626 16.0169 23.4626 18.0968C23.4626 19.4621 24.1752 20.6602 25.2397 21.3224H25.1101C23.5593 21.3224 22.2976 22.6135 22.2976 24.2004V24.9292H20.5562C19.9713 24.9292 19.4953 24.4422 19.4953 23.8437V16.8801H20.0727C21.6235 16.8801 22.8852 15.5891 22.8852 14.0022V9.91531L24.6598 8.50501C25.0687 8.18 25.1428 7.57737 24.8252 7.15898C24.5076 6.74053 23.9187 6.66481 23.5097 6.98976L22.8853 7.48604V2.92954C22.8853 1.34267 21.6236 0.0516357 20.0728 0.0516357H11.9274C10.3766 0.0516357 9.11487 1.34267 9.11487 2.92954V14.0021C9.11487 15.589 10.3766 16.88 11.9274 16.88H12.5048V23.8437C12.5048 24.4422 12.0288 24.9292 11.4438 24.9292H9.70244V24.2004C9.70244 22.6135 8.44075 21.3224 6.88994 21.3224H6.76038C7.82487 20.6603 8.53744 19.4621 8.53744 18.0968C8.53744 16.017 6.88375 14.3248 4.85119 14.3248C2.81863 14.3248 1.165 16.0169 1.165 18.0968C1.165 19.4621 1.8775 20.6602 2.94206 21.3224H2.8125C1.26169 21.3224 0 22.6135 0 24.2004V28.6371C0 30.0782 1.14575 31.2506 2.55406 31.2506H7.14838C8.55669 31.2506 9.70244 30.0782 9.70244 28.6371V26.8478H11.4438C13.0627 26.8478 14.3798 25.5001 14.3798 23.8437V16.8801H17.6203V23.8438C17.6203 25.5003 18.9372 26.848 20.5562 26.848H22.2976V28.6372C22.2976 30.0783 23.4433 31.2507 24.8516 31.2507H29.4459C30.8543 31.2507 32 30.0783 32 28.6372V24.2005C32 22.6135 30.7383 21.3224 29.1875 21.3224ZM4.85119 16.2436C5.84988 16.2436 6.66244 17.075 6.66244 18.097C6.66244 19.1189 5.84988 19.9503 4.85119 19.9503C3.8525 19.9503 3.04 19.1189 3.04 18.097C3.04 17.075 3.8525 16.2436 4.85119 16.2436ZM7.82744 28.6371C7.82744 29.0202 7.52281 29.332 7.14838 29.332H2.55406C2.17963 29.332 1.875 29.0202 1.875 28.6371V24.2004C1.875 23.6714 2.29556 23.2411 2.8125 23.2411H6.88994C7.40687 23.2411 7.82744 23.6714 7.82744 24.2004V28.6371ZM11.9274 14.9615C11.4104 14.9615 10.9899 14.5312 10.9899 14.0022V2.92954C10.9899 2.40058 11.4104 1.97024 11.9274 1.97024H20.0726C20.5896 1.97024 21.0101 2.40058 21.0101 2.92954V8.97603L18.7198 10.7962H13.243C12.7253 10.7962 12.3055 11.2257 12.3055 11.7555C12.3055 12.2853 12.7253 12.7148 13.243 12.7148C13.243 12.7148 19.0411 12.7148 19.0418 12.7148C19.2323 12.7236 19.4331 12.6473 19.5863 12.5349C19.5963 12.5276 21.0101 11.4054 21.0101 11.4054V14.0021C21.0101 14.5311 20.5896 14.9614 20.0726 14.9614H11.9274V14.9615ZM27.1488 16.2436C28.1475 16.2436 28.96 17.075 28.96 18.097C28.96 19.1189 28.1475 19.9503 27.1488 19.9503C26.1501 19.9503 25.3376 19.1189 25.3376 18.097C25.3376 17.075 26.1501 16.2436 27.1488 16.2436ZM30.125 28.6371C30.125 29.0202 29.8204 29.332 29.4459 29.332H24.8516C24.4772 29.332 24.1726 29.0202 24.1726 28.6371V24.2004C24.1726 23.6714 24.5931 23.2411 25.1101 23.2411H29.1875C29.7044 23.2411 30.125 23.6714 30.125 24.2004V28.6371Z" fill="white"/>
<path d="M18.757 4.21692H13.2429C12.7252 4.21692 12.3054 4.64643 12.3054 5.17622C12.3054 5.70601 12.7252 6.13552 13.2429 6.13552H18.757C19.2747 6.13552 19.6945 5.70601 19.6945 5.17622C19.6945 4.64643 19.2747 4.21692 18.757 4.21692Z" fill="white"/>
<path d="M18.757 7.50659H13.2429C12.7252 7.50659 12.3054 7.9361 12.3054 8.46589C12.3054 8.99568 12.7252 9.4252 13.2429 9.4252H18.757C19.2747 9.4252 19.6945 8.99568 19.6945 8.46589C19.6945 7.9361 19.2747 7.50659 18.757 7.50659Z" fill="white"/>
</svg>
