<svg width="32" height="32" viewBox="0 0 32 32" fill="none" xmlns="http://www.w3.org/2000/svg">
<path d="M29.1875 21.5424H29.058C30.1225 20.8953 30.8351 19.7243 30.8351 18.3901C30.8351 16.3575 29.1814 14.7038 27.1489 14.7038C25.1163 14.7038 23.4626 16.3575 23.4626 18.3901C23.4626 19.7243 24.1752 20.8952 25.2397 21.5424H25.1101C23.5593 21.5424 22.2976 22.8041 22.2976 24.3549V25.0672H20.5562C19.9713 25.0672 19.4953 24.5913 19.4953 24.0063V17.201H20.0727C21.6235 17.201 22.8852 15.9393 22.8852 14.3885V10.3945L24.6598 9.01626C25.0687 8.69863 25.1428 8.1097 24.8252 7.70082C24.5076 7.29188 23.9187 7.21788 23.5097 7.53545L22.8853 8.02045V3.56751C22.8853 2.01669 21.6236 0.755005 20.0728 0.755005H11.9274C10.3766 0.755005 9.11487 2.01669 9.11487 3.56751V14.3884C9.11487 15.9392 10.3766 17.2009 11.9274 17.2009H12.5048V24.0063C12.5048 24.5913 12.0288 25.0672 11.4438 25.0672H9.70244V24.3549C9.70244 22.8041 8.44075 21.5424 6.88994 21.5424H6.76038C7.82487 20.8953 8.53744 19.7243 8.53744 18.3901C8.53744 16.3575 6.88375 14.7038 4.85119 14.7038C2.81863 14.7038 1.165 16.3575 1.165 18.3901C1.165 19.7243 1.8775 20.8952 2.94206 21.5424H2.8125C1.26169 21.5424 0 22.8041 0 24.3549V28.6908C0 30.0991 1.14575 31.2449 2.55406 31.2449H7.14838C8.55669 31.2449 9.70244 30.0991 9.70244 28.6908V26.9422H11.4438C13.0627 26.9422 14.3798 25.6251 14.3798 24.0063V17.201H17.6203V24.0065C17.6203 25.6253 18.9372 26.9423 20.5562 26.9423H22.2976V28.6909C22.2976 30.0993 23.4433 31.245 24.8516 31.245H29.4459C30.8543 31.245 32 30.0993 32 28.6909V24.355C32 22.8041 30.7383 21.5424 29.1875 21.5424ZM4.85119 16.5789C5.84988 16.5789 6.66244 17.3915 6.66244 18.3902C6.66244 19.389 5.84988 20.2015 4.85119 20.2015C3.8525 20.2015 3.04 19.389 3.04 18.3902C3.04 17.3915 3.8525 16.5789 4.85119 16.5789ZM7.82744 28.6908C7.82744 29.0652 7.52281 29.3699 7.14838 29.3699H2.55406C2.17963 29.3699 1.875 29.0652 1.875 28.6908V24.3549C1.875 23.838 2.29556 23.4174 2.8125 23.4174H6.88994C7.40687 23.4174 7.82744 23.838 7.82744 24.3549V28.6908ZM11.9274 15.326C11.4104 15.326 10.9899 14.9054 10.9899 14.3885V3.56751C10.9899 3.05057 11.4104 2.63001 11.9274 2.63001H20.0726C20.5896 2.63001 21.0101 3.05057 21.0101 3.56751V9.47657L18.7198 11.2554H13.243C12.7253 11.2554 12.3055 11.6751 12.3055 12.1929C12.3055 12.7106 12.7253 13.1304 13.243 13.1304C13.243 13.1304 19.0411 13.1304 19.0418 13.1304C19.2323 13.1389 19.4331 13.0644 19.5863 12.9546C19.5963 12.9474 21.0101 11.8507 21.0101 11.8507V14.3884C21.0101 14.9054 20.5896 15.3259 20.0726 15.3259H11.9274V15.326ZM27.1488 16.5789C28.1475 16.5789 28.96 17.3915 28.96 18.3902C28.96 19.389 28.1475 20.2015 27.1488 20.2015C26.1501 20.2015 25.3376 19.389 25.3376 18.3902C25.3376 17.3915 26.1501 16.5789 27.1488 16.5789ZM30.125 28.6908C30.125 29.0652 29.8204 29.3699 29.4459 29.3699H24.8516C24.4772 29.3699 24.1726 29.0652 24.1726 28.6908V24.3549C24.1726 23.838 24.5931 23.4174 25.1101 23.4174H29.1875C29.7044 23.4174 30.125 23.838 30.125 24.3549V28.6908Z" fill="#BDBDBD"/>
<path d="M18.757 4.82568H13.2429C12.7252 4.82568 12.3054 5.24543 12.3054 5.76318C12.3054 6.28093 12.7252 6.70068 13.2429 6.70068H18.757C19.2747 6.70068 19.6945 6.28093 19.6945 5.76318C19.6945 5.24543 19.2747 4.82568 18.757 4.82568Z" fill="#BDBDBD"/>
<path d="M18.757 8.04053H13.2429C12.7252 8.04053 12.3054 8.46028 12.3054 8.97803C12.3054 9.49578 12.7252 9.91553 13.2429 9.91553H18.757C19.2747 9.91553 19.6945 9.49578 19.6945 8.97803C19.6945 8.46028 19.2747 8.04053 18.757 8.04053Z" fill="#BDBDBD"/>
</svg>
