<svg width="36" height="30" viewBox="0 0 36 30" fill="none" xmlns="http://www.w3.org/2000/svg">
<path d="M30.7266 15.8545H27.2026C26.723 15.8545 26.2587 15.92 25.8168 16.0405C24.945 14.3269 23.1653 13.1494 21.1145 13.1494H14.8855C12.8347 13.1494 11.055 14.3269 10.1832 16.0405C9.7413 15.92 9.27696 15.8545 8.79736 15.8545H5.27344C2.36566 15.8545 0 18.2201 0 21.1279V26.7612C0 28.5059 1.4194 29.9253 3.16406 29.9253H32.8359C34.5806 29.9253 36 28.5059 36 26.7612V21.1279C36 18.2201 33.6343 15.8545 30.7266 15.8545ZM9.61207 18.423V27.816H3.16406C2.58251 27.816 2.10938 27.3428 2.10938 26.7613V21.128C2.10938 19.3833 3.52877 17.9639 5.27344 17.9639H8.79736C9.08367 17.9639 9.36091 18.0028 9.62487 18.0745C9.61727 18.1898 9.61207 18.3059 9.61207 18.423ZM24.2786 27.816H11.7214V18.4229C11.7214 16.6783 13.1408 15.2589 14.8855 15.2589H21.1145C22.8592 15.2589 24.2786 16.6783 24.2786 18.4229V27.816ZM33.8906 26.7613C33.8906 27.3428 33.4175 27.816 32.8359 27.816H26.3879V18.4229C26.3879 18.3057 26.3827 18.1897 26.3751 18.0744C26.6391 18.0028 26.9163 17.9639 27.2026 17.9639H30.7266C32.4712 17.9639 33.8906 19.3832 33.8906 21.1279V26.7613Z" fill="#FFFCFC"/>
<path d="M7.03541 5.89478C4.4515 5.89478 2.34937 7.99691 2.34937 10.5808C2.34929 13.1647 4.4515 15.2669 7.03541 15.2669C9.61926 15.2669 11.7215 13.1647 11.7215 10.5808C11.7215 7.99691 9.61933 5.89478 7.03541 5.89478ZM7.03534 13.1575C5.61454 13.1575 4.45867 12.0016 4.45867 10.5808C4.45867 9.16002 5.61454 8.00415 7.03534 8.00415C8.45615 8.00415 9.61201 9.16002 9.61201 10.5808C9.61201 12.0016 8.45615 13.1575 7.03534 13.1575Z" fill="#FFFCFC"/>
<path d="M18 0.074707C14.5479 0.074707 11.7395 2.88313 11.7395 6.33519C11.7395 9.78725 14.5479 12.5957 18 12.5957C21.452 12.5957 24.2605 9.78725 24.2605 6.33519C24.2605 2.8832 21.452 0.074707 18 0.074707ZM18 10.4863C15.711 10.4863 13.8489 8.62414 13.8489 6.33519C13.8489 4.04631 15.711 2.18408 18 2.18408C20.2889 2.18408 22.1511 4.04624 22.1511 6.33519C22.1511 8.62414 20.2889 10.4863 18 10.4863Z" fill="#FFFCFC"/>
<path d="M28.9646 5.89478C26.3808 5.89478 24.2786 7.99691 24.2786 10.5808C24.2786 13.1647 26.3808 15.2669 28.9646 15.2669C31.5485 15.2669 33.6507 13.1647 33.6507 10.5808C33.6507 7.99691 31.5485 5.89478 28.9646 5.89478ZM28.9646 13.1575C27.5439 13.1575 26.3879 12.0016 26.3879 10.5808C26.388 9.16002 27.5439 8.00415 28.9646 8.00415C30.3854 8.00415 31.5413 9.16002 31.5413 10.5808C31.5413 12.0016 30.3854 13.1575 28.9646 13.1575Z" fill="#FFFCFC"/>
</svg>
