<svg width="33" height="33" viewBox="0 0 33 33" fill="none" xmlns="http://www.w3.org/2000/svg">
<path d="M8.21281 16.2758C6.05795 16.2758 3.94402 15.4022 2.39708 13.8675C0.851297 12.334 0 10.2993 0 8.13803C0 5.75954 1.05039 3.50782 2.88189 1.96029C4.76818 0.366468 7.23338 -0.301686 9.64586 0.126937L25.9493 3.02467C26.4112 3.10679 26.748 3.51107 26.748 3.98357V12.2925C26.748 12.7649 26.4112 13.1693 25.9493 13.2513C21.9989 13.9535 18.9811 14.4917 16.668 14.9043C8.99031 16.2736 8.99031 16.2736 8.43595 16.2742C8.40514 16.2742 8.37207 16.2743 8.33392 16.2748C8.29357 16.2754 8.25316 16.2758 8.21281 16.2758ZM8.20965 1.94756C6.72987 1.94756 5.28516 2.47161 4.12474 3.45213C2.73223 4.62875 1.93359 6.33668 1.93359 8.13803C1.93359 9.77352 2.58006 11.3156 3.75394 12.4802C4.96334 13.6798 6.62224 14.3531 8.30627 14.3276C8.35487 14.3269 8.39566 14.3269 8.43363 14.3268C8.8121 14.3264 8.95969 14.3013 16.3307 12.9867C18.4858 12.6023 21.2521 12.109 24.8144 11.4756V4.80044L9.3098 2.04474C8.94358 1.97963 8.57536 1.94756 8.20965 1.94756Z" fill="#BDBDBD"/>
<path d="M8.25 11.189C6.57963 11.189 5.2207 9.82038 5.2207 8.13809C5.2207 6.45579 6.57963 5.08716 8.25 5.08716C9.92037 5.08716 11.2793 6.45579 11.2793 8.13809C11.2793 9.82038 9.92037 11.189 8.25 11.189ZM8.25 7.03456C7.64582 7.03456 7.1543 7.52959 7.1543 8.13809C7.1543 8.74659 7.64582 9.24162 8.25 9.24162C8.85418 9.24162 9.3457 8.74659 9.3457 8.13809C9.3457 7.52959 8.85418 7.03456 8.25 7.03456Z" fill="#BDBDBD"/>
<path d="M32.0331 15.3434C31.9315 15.3434 31.8293 15.3272 31.7303 15.2944L25.4784 13.2171C25.0821 13.0855 24.8145 12.7126 24.8145 12.2925V3.98354C24.8145 3.56329 25.0821 3.19049 25.4784 3.05885L31.7303 0.981618C32.0248 0.883793 32.3484 0.934166 32.5997 1.11729C32.8511 1.30034 33 1.59382 33 1.90631V14.3697C33 14.6821 32.8511 14.9756 32.5997 15.1587C32.4327 15.2803 32.234 15.3434 32.0331 15.3434ZM26.748 11.5883L31.0664 13.0231V3.25281L26.748 4.68759V11.5883Z" fill="#BDBDBD"/>
<path d="M12.4506 27.8068C10.7404 27.8068 9.28655 26.5752 8.99348 24.8784L7.3683 15.4681C7.31983 15.1873 7.39595 14.899 7.57674 14.6796C7.75753 14.4602 8.02469 14.3315 8.30776 14.3277C8.82719 14.3206 8.90802 14.3086 11.192 13.8989C11.7285 13.8026 12.383 13.6853 13.1892 13.542C13.4424 13.4972 13.7029 13.5554 13.9132 13.7042C14.1235 13.8531 14.2663 14.0802 14.31 14.3354L15.9086 23.6722C16.0849 24.7017 15.8027 25.7504 15.1344 26.5494C14.4662 27.3485 13.4879 27.8068 12.4506 27.8068ZM9.45355 16.1782L10.8985 24.5447C11.03 25.3065 11.6827 25.8594 12.4506 25.8594C12.9163 25.8594 13.3555 25.6536 13.6555 25.2949C13.9555 24.9362 14.0822 24.4654 14.0031 24.0032L12.5695 15.6302C12.1808 15.6996 11.8367 15.7613 11.531 15.8162C10.4861 16.0035 9.8741 16.1133 9.45355 16.1782Z" fill="#BDBDBD"/>
<path d="M18.0466 33C16.4185 33 14.8876 32.3649 13.7308 31.2084C12.5656 30.0436 11.9238 28.4761 11.9238 26.7948C11.9238 26.257 12.3567 25.8211 12.8906 25.8211C13.4246 25.8211 13.8574 26.257 13.8574 26.7948C13.8574 27.9532 14.2962 29.0299 15.0929 29.8263C15.8847 30.6178 16.9326 31.0526 18.0469 31.0526C18.0576 31.0526 18.0683 31.0526 18.079 31.0524C20.3713 31.0352 22.2363 29.1133 22.2363 26.7681V23.4576C22.2363 21.6321 23.711 20.147 25.5234 20.147C27.3359 20.147 28.8105 21.6321 28.8105 23.4576V32.0261C28.8105 32.5639 28.3777 32.9998 27.8438 32.9998C27.3098 32.9998 26.877 32.5639 26.877 32.0261V23.4576C26.877 22.7059 26.2697 22.0944 25.5234 22.0944C24.7771 22.0944 24.1699 22.7059 24.1699 23.4576V26.7681C24.1699 30.179 21.444 32.9745 18.0935 32.9998C18.0779 32.9999 18.0621 33 18.0466 33Z" fill="#BDBDBD"/>
</svg>
