<svg width="32" height="30" viewBox="0 0 32 30" fill="none" xmlns="http://www.w3.org/2000/svg">
<path d="M9.25023 22.7073C7.85217 22.6359 7.8785 20.6695 9.25016 20.6012C13.1357 20.6147 23.384 20.6048 27.393 20.6076C28.4896 20.6076 29.4277 19.8614 29.6743 18.7931L31.9508 8.9353C32.0812 8.37088 31.9496 7.78669 31.5899 7.33264C31.2302 6.87859 30.6917 6.61451 30.1125 6.61451C28.4997 6.61451 14.8096 6.55254 7.79758 6.52458L6.68605 2.40033C6.41922 1.41474 5.51981 0.72644 4.49876 0.72644H0.937998C0.419973 0.72644 0 1.14641 0 1.66444C0 2.18246 0.419973 2.60244 0.937998 2.60244H4.49876C4.67455 2.60244 4.82932 2.72094 4.87503 2.88959L9.14386 18.7278C8.39327 18.755 7.69415 19.0603 7.16399 19.5982C6.60695 20.1635 6.30779 20.9118 6.32161 21.7053C6.34925 23.2922 7.66301 24.5832 9.25023 24.5832H10.618C10.4147 25.01 10.3005 25.487 10.3005 25.9903C10.3005 27.8006 11.7733 29.2734 13.5837 29.2734C15.394 29.2734 16.8668 27.8006 16.8668 25.9903C16.8668 25.487 16.7526 25.01 16.5493 24.5832H22.4722C22.2691 25.0098 22.155 25.4867 22.155 25.9898C22.155 27.8001 23.6278 29.2729 25.4381 29.2729C27.2484 29.2729 28.7213 27.8001 28.7213 25.9898C28.7213 25.4671 28.5978 24.9728 28.3796 24.5337C28.7508 24.4087 29.0184 24.0586 29.0184 23.6453C29.0184 23.1273 28.5984 22.7073 28.0804 22.7073H9.25023ZM14.9907 25.9904C14.9907 26.7663 14.3595 27.3975 13.5836 27.3975C12.8077 27.3975 12.1765 26.7663 12.1765 25.9904C12.1765 25.2149 12.8071 24.5839 13.5824 24.5833H13.5848C14.3601 24.5839 14.9907 25.2149 14.9907 25.9904ZM25.4381 27.397C24.6623 27.397 24.031 26.7657 24.031 25.9899C24.031 25.2216 24.65 24.5956 25.4153 24.5833H25.461C26.2264 24.5956 26.8454 25.2216 26.8454 25.9899C26.8453 26.7657 26.214 27.397 25.4381 27.397V27.397ZM30.1194 8.49738C30.1249 8.50439 30.1241 8.5077 30.1229 8.51308L29.1637 12.6668H25.9156L26.4687 8.47568L30.105 8.49032C30.1106 8.49044 30.1139 8.49044 30.1194 8.49738V8.49738ZM20.4489 18.7316V14.5428H23.7758L23.223 18.7316H20.4489ZM15.7976 18.7316L15.2403 14.5428H18.5729V18.7316H15.7976ZM11.4795 18.7316H11.4765C11.2479 18.7315 11.0465 18.5773 10.987 18.3576L9.95885 14.5428H13.3477L13.905 18.7316H11.4795ZM14.9907 12.6669L14.4265 8.42722L18.5729 8.44392V12.6669H14.9907ZM20.4489 12.6669V8.45148L24.5775 8.46812L24.0234 12.6669H20.4489ZM12.533 8.41953L13.0981 12.6668H9.45321L8.30385 8.40246L12.533 8.41953ZM27.393 18.7316H25.1152L25.668 14.5428H28.7304L27.8464 18.3709C27.7974 18.5833 27.611 18.7316 27.393 18.7316Z" fill="white"/>
</svg>
