<svg width="32" height="30" viewBox="0 0 32 30" fill="none" xmlns="http://www.w3.org/2000/svg">
<path d="M7.7825 13.9565H1.0435C0.467187 13.9565 0 14.4238 0 15V28.478C0 29.0542 0.467187 29.5215 1.0435 29.5215H7.7825C8.35875 29.5215 8.826 29.0543 8.826 28.478V15C8.82594 14.4237 8.35875 13.9565 7.7825 13.9565ZM6.739 27.4345H2.08694V16.0435H6.739V27.4345V27.4345Z" fill="white"/>
<path d="M19.3696 0.478638H12.6307C12.0544 0.478638 11.5872 0.945763 11.5872 1.52214V28.478C11.5872 29.0542 12.0543 29.5215 12.6307 29.5215H19.3697C19.9459 29.5215 20.4132 29.0543 20.4132 28.478V1.52208C20.4131 0.945763 19.9459 0.478638 19.3696 0.478638ZM18.3262 27.4345H13.6741V2.56558H18.3262V27.4345Z" fill="white"/>
<path d="M30.9565 7.21753H24.2176C23.6413 7.21753 23.1741 7.68472 23.1741 8.26103V28.4779C23.1741 29.0542 23.6413 29.5214 24.2176 29.5214H30.9566C31.5328 29.5214 32.0001 29.0542 32.0001 28.4779V8.26103C32 7.68478 31.5328 7.21753 30.9565 7.21753ZM29.9131 27.4345H25.261V9.30453H29.9131V27.4345Z" fill="white"/>
</svg>
