<svg width="30" height="32" viewBox="0 0 30 32" fill="none" xmlns="http://www.w3.org/2000/svg">
<path d="M28.5956 10.1322L15.5579 0.818941C15.2241 0.580861 14.7761 0.580861 14.4423 0.818941L1.40554 10.1313C0.900898 10.4903 0.600098 11.0743 0.600098 11.6938V29.4401C0.600098 30.4986 1.46122 31.3601 2.5201 31.3601H27.4801C28.539 31.3601 29.4001 30.4986 29.4001 29.4401V11.6938C29.4001 11.0743 29.0993 10.4903 28.5956 10.1322ZM23.6401 29.4401H15.9601V21.7601H23.6401V29.4401ZM18.8401 19.8401H11.1601V12.1601H18.8401V19.8401ZM14.0401 21.7601V29.4401H6.3601V21.7601H14.0401ZM25.5601 29.4401V21.7601C25.5601 20.7015 24.699 19.8401 23.6401 19.8401H20.7601V12.1601C20.7601 11.1015 19.899 10.2401 18.8401 10.2401H11.1601C10.1012 10.2401 9.2401 11.1015 9.2401 12.1601V19.8401H6.3601C5.30122 19.8401 4.4401 20.7015 4.4401 21.7601V29.4401H2.5201V11.6938L15.0001 2.77926L27.4801 11.6938L27.4814 29.4401H25.5601Z" fill="#BDBDBD"/>
</svg>
