<svg width="16" height="11" viewBox="0 0 16 11" fill="none" xmlns="http://www.w3.org/2000/svg">
<path d="M6.558 6.906L10.338 4.96L6.558 2.986V6.906ZM8 0.172C8.87733 0.172 9.722 0.186 10.534 0.213999C11.346 0.241999 11.9433 0.265333 12.326 0.284L12.9 0.312L13.026 0.325999C13.11 0.335333 13.1707 0.344666 13.208 0.354C13.2453 0.363333 13.306 0.372666 13.39 0.381999C13.474 0.391333 13.5487 0.414666 13.614 0.451999C13.6793 0.489333 13.754 0.522 13.838 0.55C13.922 0.577999 14.0013 0.629333 14.076 0.704C14.1507 0.778666 14.2253 0.848666 14.3 0.913999C14.3373 0.942 14.3793 0.988666 14.426 1.054C14.4727 1.11933 14.5473 1.27333 14.65 1.516C14.7527 1.75867 14.8227 2.02 14.86 2.3C14.8973 2.636 14.93 2.99067 14.958 3.364C14.986 3.73733 15 4.036 15 4.26V5.632C15.0093 6.388 14.9627 7.144 14.86 7.9C14.8227 8.18 14.7573 8.43667 14.664 8.67C14.5707 8.90333 14.4867 9.06667 14.412 9.16L14.3 9.286C14.2347 9.36067 14.16 9.43067 14.076 9.496C13.992 9.56133 13.9127 9.608 13.838 9.636C13.7633 9.664 13.6887 9.69667 13.614 9.734C13.5393 9.77133 13.4647 9.79467 13.39 9.804L12.9 9.874C11.5933 9.97667 9.96 10.028 8 10.028L5.186 9.972C4.38333 9.95333 3.86533 9.93467 3.632 9.916L2.96 9.846C2.77333 9.818 2.63333 9.79467 2.54 9.776C2.44667 9.75733 2.31133 9.70133 2.134 9.608C1.95667 9.51467 1.812 9.40733 1.7 9.286C1.66267 9.258 1.62067 9.21133 1.574 9.146C1.52733 9.08067 1.45267 8.92667 1.35 8.684C1.24733 8.44133 1.17733 8.18 1.14 7.9C1.10267 7.564 1.07 7.20933 1.042 6.836C1.014 6.46267 1 6.164 1 5.94V4.568C0.990667 3.812 1.03733 3.056 1.14 2.3C1.17733 2.01067 1.24267 1.754 1.336 1.53C1.42933 1.306 1.51333 1.14267 1.588 1.04L1.7 0.913999C1.77467 0.829999 1.84933 0.759999 1.924 0.704C1.99867 0.648 2.078 0.596666 2.162 0.55C2.246 0.503333 2.32067 0.470666 2.386 0.451999L2.61 0.381999C2.694 0.353999 2.75467 0.344666 2.792 0.354C2.82933 0.363333 2.89 0.354 2.974 0.325999C3.058 0.298 3.1 0.293333 3.1 0.312C4.40667 0.218666 6.04 0.172 8 0.172Z" fill="white"/>
</svg>
